<mxfile host="app.diagrams.net" agent="Mozilla/5.0 (Windows NT 10.0; Win64; x64) AppleWebKit/537.36 (KHTML, like Gecko) Chrome/131.0.0.0 Safari/537.36 Edg/131.0.0.0" version="24.9.3">
  <diagram name="Page-1" id="bG8l3HCdxYYPTU4J25cE">
    <mxGraphModel dx="1282" dy="1710" grid="1" gridSize="10" guides="1" tooltips="1" connect="1" arrows="1" fold="1" page="1" pageScale="1" pageWidth="827" pageHeight="1169" math="0" shadow="0">
      <root>
        <mxCell id="0" />
        <mxCell id="1" parent="0" />
        <mxCell id="9ppKvF9D70RUMVK4zJBX-41" value="&lt;div style=&quot;text-align: start;&quot;&gt;&lt;br&gt;&lt;/div&gt;" style="html=1;verticalAlign=bottom;endArrow=block;curved=0;rounded=0;fontSize=12;exitX=1.4;exitY=0.558;exitDx=0;exitDy=0;exitPerimeter=0;shape=link;" parent="1" target="f0SORPLu1wxNBxf0j8MD-8" edge="1">
          <mxGeometry width="80" relative="1" as="geometry">
            <mxPoint x="180" y="380.00000000000006" as="sourcePoint" />
            <mxPoint x="894.5" y="380.06" as="targetPoint" />
          </mxGeometry>
        </mxCell>
        <mxCell id="GE6msEZ6bf9stXsZzAZG-4" value="Accès authorisé" style="edgeLabel;html=1;align=center;verticalAlign=middle;resizable=0;points=[];" parent="9ppKvF9D70RUMVK4zJBX-41" vertex="1" connectable="0">
          <mxGeometry x="-0.0134" y="-2" relative="1" as="geometry">
            <mxPoint as="offset" />
          </mxGeometry>
        </mxCell>
        <mxCell id="9ppKvF9D70RUMVK4zJBX-10" value="App Front" style="shape=umlLifeline;perimeter=lifelinePerimeter;whiteSpace=wrap;html=1;container=1;dropTarget=0;collapsible=0;recursiveResize=0;outlineConnect=0;portConstraint=eastwest;newEdgeStyle={&quot;curved&quot;:0,&quot;rounded&quot;:0};" parent="1" vertex="1">
          <mxGeometry x="130" y="40" width="100" height="440" as="geometry" />
        </mxCell>
        <mxCell id="9ppKvF9D70RUMVK4zJBX-13" value="" style="html=1;points=[[0,0,0,0,5],[0,1,0,0,-5],[1,0,0,0,5],[1,1,0,0,-5]];perimeter=orthogonalPerimeter;outlineConnect=0;targetShapes=umlLifeline;portConstraint=eastwest;newEdgeStyle={&quot;curved&quot;:0,&quot;rounded&quot;:0};" parent="9ppKvF9D70RUMVK4zJBX-10" vertex="1">
          <mxGeometry x="46" y="80" width="10" height="310" as="geometry" />
        </mxCell>
        <mxCell id="9ppKvF9D70RUMVK4zJBX-12" value="Service Authentification" style="shape=umlLifeline;perimeter=lifelinePerimeter;whiteSpace=wrap;html=1;container=1;dropTarget=0;collapsible=0;recursiveResize=0;outlineConnect=0;portConstraint=eastwest;newEdgeStyle={&quot;curved&quot;:0,&quot;rounded&quot;:0};" parent="1" vertex="1">
          <mxGeometry x="466.5" y="40" width="100" height="440" as="geometry" />
        </mxCell>
        <mxCell id="9ppKvF9D70RUMVK4zJBX-22" value="" style="html=1;points=[[0,0,0,0,5],[0,1,0,0,-5],[1,0,0,0,5],[1,1,0,0,-5]];perimeter=orthogonalPerimeter;outlineConnect=0;targetShapes=umlLifeline;portConstraint=eastwest;newEdgeStyle={&quot;curved&quot;:0,&quot;rounded&quot;:0};" parent="9ppKvF9D70RUMVK4zJBX-12" vertex="1">
          <mxGeometry x="46" y="160" width="10" height="160" as="geometry" />
        </mxCell>
        <mxCell id="9ppKvF9D70RUMVK4zJBX-21" value="Visite" style="html=1;verticalAlign=bottom;endArrow=block;curved=0;rounded=0;fontSize=12;startSize=8;endSize=8;" parent="1" edge="1">
          <mxGeometry width="80" relative="1" as="geometry">
            <mxPoint x="59.5" y="160" as="sourcePoint" />
            <mxPoint x="176" y="160" as="targetPoint" />
          </mxGeometry>
        </mxCell>
        <mxCell id="9ppKvF9D70RUMVK4zJBX-23" value="Authentification" style="html=1;verticalAlign=bottom;endArrow=block;curved=0;rounded=0;fontSize=12;startSize=8;endSize=8;" parent="1" edge="1">
          <mxGeometry width="80" relative="1" as="geometry">
            <mxPoint x="348" y="206" as="sourcePoint" />
            <mxPoint x="514" y="206" as="targetPoint" />
          </mxGeometry>
        </mxCell>
        <mxCell id="9ppKvF9D70RUMVK4zJBX-25" value="Login/Logout" style="shape=umlLifeline;perimeter=lifelinePerimeter;whiteSpace=wrap;html=1;container=1;dropTarget=0;collapsible=0;recursiveResize=0;outlineConnect=0;portConstraint=eastwest;newEdgeStyle={&quot;curved&quot;:0,&quot;rounded&quot;:0};" parent="1" vertex="1">
          <mxGeometry x="290" y="40" width="100" height="440" as="geometry" />
        </mxCell>
        <mxCell id="9ppKvF9D70RUMVK4zJBX-26" value="" style="html=1;points=[[0,0,0,0,5],[0,1,0,0,-5],[1,0,0,0,5],[1,1,0,0,-5]];perimeter=orthogonalPerimeter;outlineConnect=0;targetShapes=umlLifeline;portConstraint=eastwest;newEdgeStyle={&quot;curved&quot;:0,&quot;rounded&quot;:0};" parent="9ppKvF9D70RUMVK4zJBX-25" vertex="1">
          <mxGeometry x="45" y="106" width="10" height="204" as="geometry" />
        </mxCell>
        <mxCell id="9ppKvF9D70RUMVK4zJBX-31" value="si ok&lt;div&gt;succès&lt;/div&gt;" style="html=1;verticalAlign=bottom;endArrow=block;curved=0;rounded=0;fontSize=12;startSize=8;endSize=8;" parent="1" edge="1" target="9ppKvF9D70RUMVK4zJBX-26">
          <mxGeometry width="80" relative="1" as="geometry">
            <mxPoint x="509.5" y="318" as="sourcePoint" />
            <mxPoint x="293" y="318" as="targetPoint" />
          </mxGeometry>
        </mxCell>
        <mxCell id="9ppKvF9D70RUMVK4zJBX-36" value="API" style="shape=umlLifeline;perimeter=lifelinePerimeter;whiteSpace=wrap;html=1;container=1;dropTarget=0;collapsible=0;recursiveResize=0;outlineConnect=0;portConstraint=eastwest;newEdgeStyle={&quot;curved&quot;:0,&quot;rounded&quot;:0};" parent="1" vertex="1">
          <mxGeometry x="906.5" y="40" width="100" height="440" as="geometry" />
        </mxCell>
        <mxCell id="9ppKvF9D70RUMVK4zJBX-40" value="" style="html=1;points=[[0,0,0,0,5],[0,1,0,0,-5],[1,0,0,0,5],[1,1,0,0,-5]];perimeter=orthogonalPerimeter;outlineConnect=0;targetShapes=umlLifeline;portConstraint=eastwest;newEdgeStyle={&quot;curved&quot;:0,&quot;rounded&quot;:0};" parent="9ppKvF9D70RUMVK4zJBX-36" vertex="1">
          <mxGeometry x="46" y="120" width="10" height="288" as="geometry" />
        </mxCell>
        <mxCell id="f0SORPLu1wxNBxf0j8MD-3" value="&lt;div&gt;&lt;br&gt;&lt;/div&gt;&lt;div&gt;&lt;br&gt;&lt;/div&gt;&lt;div&gt;&lt;br&gt;&lt;/div&gt;&lt;div&gt;&lt;br&gt;&lt;/div&gt;&lt;div&gt;&lt;br&gt;&lt;/div&gt;&lt;div&gt;&lt;br&gt;&lt;/div&gt;&lt;div&gt;Utilisateur&amp;nbsp;&lt;/div&gt;" style="shape=umlLifeline;perimeter=lifelinePerimeter;whiteSpace=wrap;html=1;container=1;dropTarget=0;collapsible=0;recursiveResize=0;outlineConnect=0;portConstraint=eastwest;newEdgeStyle={&quot;curved&quot;:0,&quot;rounded&quot;:0};participant=umlActor;" parent="1" vertex="1">
          <mxGeometry x="50" y="40" width="20" height="440" as="geometry" />
        </mxCell>
        <mxCell id="f0SORPLu1wxNBxf0j8MD-7" value="&lt;div&gt;Avions&lt;/div&gt;" style="shape=umlLifeline;perimeter=lifelinePerimeter;whiteSpace=wrap;html=1;container=1;dropTarget=0;collapsible=0;recursiveResize=0;outlineConnect=0;portConstraint=eastwest;newEdgeStyle={&quot;curved&quot;:0,&quot;rounded&quot;:0};" parent="1" vertex="1">
          <mxGeometry x="660" y="40" width="100" height="440" as="geometry" />
        </mxCell>
        <mxCell id="f0SORPLu1wxNBxf0j8MD-8" value="" style="html=1;points=[[0,0,0,0,5],[0,1,0,0,-5],[1,0,0,0,5],[1,1,0,0,-5]];perimeter=orthogonalPerimeter;outlineConnect=0;targetShapes=umlLifeline;portConstraint=eastwest;newEdgeStyle={&quot;curved&quot;:0,&quot;rounded&quot;:0};" parent="f0SORPLu1wxNBxf0j8MD-7" vertex="1">
          <mxGeometry x="45" y="300" width="10" height="78" as="geometry" />
        </mxCell>
        <mxCell id="f0SORPLu1wxNBxf0j8MD-10" value="Redirection automatique&lt;div&gt;message: pour accéder&lt;/div&gt;&lt;div&gt;=&amp;gt; login&lt;/div&gt;" style="html=1;verticalAlign=bottom;endArrow=block;curved=0;rounded=0;fontSize=12;startSize=8;endSize=8;" parent="1" edge="1">
          <mxGeometry width="80" relative="1" as="geometry">
            <mxPoint x="190" y="187" as="sourcePoint" />
            <mxPoint x="337" y="187" as="targetPoint" />
          </mxGeometry>
        </mxCell>
        <mxCell id="GE6msEZ6bf9stXsZzAZG-1" value="sinon réessayer&lt;div&gt;erreur&lt;/div&gt;" style="html=1;verticalAlign=bottom;endArrow=block;curved=0;rounded=0;fontSize=12;startSize=8;endSize=8;" parent="1" edge="1">
          <mxGeometry width="80" relative="1" as="geometry">
            <mxPoint x="511" y="275.5" as="sourcePoint" />
            <mxPoint x="347" y="276" as="targetPoint" />
          </mxGeometry>
        </mxCell>
        <mxCell id="GE6msEZ6bf9stXsZzAZG-6" value="Requête" style="html=1;verticalAlign=bottom;endArrow=block;curved=0;rounded=0;" parent="1" edge="1" source="9ppKvF9D70RUMVK4zJBX-22">
          <mxGeometry width="80" relative="1" as="geometry">
            <mxPoint x="353" y="230" as="sourcePoint" />
            <mxPoint x="951.5" y="230" as="targetPoint" />
          </mxGeometry>
        </mxCell>
        <mxCell id="GE6msEZ6bf9stXsZzAZG-7" value="Réponse" style="html=1;verticalAlign=bottom;endArrow=block;curved=0;rounded=0;" parent="1" edge="1" source="9ppKvF9D70RUMVK4zJBX-40">
          <mxGeometry width="80" relative="1" as="geometry">
            <mxPoint x="1118.5" y="255" as="sourcePoint" />
            <mxPoint x="520" y="255" as="targetPoint" />
          </mxGeometry>
        </mxCell>
        <mxCell id="zf2alSKaaoy_BNmRmlK_-1" value="Accueil - Scénario 1" style="text;html=1;align=center;verticalAlign=middle;whiteSpace=wrap;rounded=0;" parent="1" vertex="1">
          <mxGeometry x="70" y="-10" width="140" height="30" as="geometry" />
        </mxCell>
        <mxCell id="OE9DgODkn0pc2vjsV3J_-1" value="" style="endArrow=none;html=1;rounded=0;" edge="1" parent="1">
          <mxGeometry width="50" height="50" relative="1" as="geometry">
            <mxPoint x="826.5" y="510" as="sourcePoint" />
            <mxPoint x="826.5" as="targetPoint" />
          </mxGeometry>
        </mxCell>
      </root>
    </mxGraphModel>
  </diagram>
</mxfile>
